<svg data-v-fde0c5aa="" xmlns="http://www.w3.org/2000/svg" viewBox="0 0 300 300" class="iconLeft"><!----><defs data-v-fde0c5aa=""><!----></defs><rect data-v-fde0c5aa="" fill="#FEF2E5" x="0" y="0" width="300px" height="300px" class="logo-background-square"></rect><defs data-v-fde0c5aa=""><!----></defs><g data-v-fde0c5aa="" id="51ad93a0-1471-4e5f-9bc4-cc6d7a232546" fill="#361C00" transform="matrix(1.1246040746088144,0,0,1.1246040746088144,62.024700759713355,139.215046484774)"><path d="M5.05 3.61Q6.75 3.61 7.66 4.32Q8.57 5.03 8.57 6.01Q8.57 6.99 7.91 7.86Q7.25 8.74 6.05 9.32L6.05 9.32Q8.76 9.74 8.76 11.97L8.76 11.97Q8.76 13.05 8.06 14.13L8.06 14.13Q6.73 16.18 3.96 16.18L3.96 16.18Q2.58 16.18 1.97 15.76Q1.37 15.34 1.37 14.49Q1.37 13.64 1.90 10.10Q2.44 6.57 2.44 5.58Q2.44 4.59 2.23 3.93L2.23 3.93Q3.95 3.61 5.05 3.61L5.05 3.61ZM3.28 10.05L3.28 10.05Q2.90 12.54 2.90 13.49Q2.90 14.43 3.01 14.85L3.01 14.85Q3.54 15.20 4.34 15.20L4.34 15.20Q5.67 15.20 6.47 14.32Q7.27 13.44 7.27 12.36Q7.27 11.28 6.59 10.59Q5.91 9.90 4.48 9.86L4.48 9.86Q3.86 10.00 3.28 10.05ZM3.39 9.28Q5.22 9.17 6.16 8.37Q7.10 7.57 7.10 6.60Q7.10 5.63 6.56 5.03Q6.02 4.42 4.90 4.42L4.90 4.42Q4.56 4.42 4.02 4.52L4.02 4.52Q4.00 5.33 3.39 9.28L3.39 9.28ZM12.29 16.23L12.29 16.23Q11.34 16.23 10.79 15.29Q10.23 14.35 10.23 12.71L10.23 12.71Q10.23 10.08 11.42 8.27Q12.60 6.45 14.34 6.45L14.34 6.45Q15.53 6.45 16.31 7.39L16.31 7.39Q16.42 6.96 16.60 6.78Q16.77 6.59 17.14 6.59Q17.51 6.59 17.84 6.96L17.84 6.96Q17.58 7.63 17.40 9.21Q17.22 10.79 17.22 12.16Q17.22 13.52 17.37 14.27Q17.51 15.02 17.86 15.61L17.86 15.61Q17.46 16.13 16.91 16.13L16.91 16.13Q15.71 16.13 15.71 13.17L15.71 13.17Q15.71 12.70 15.82 11.51L15.82 11.51Q15.09 13.54 14.09 14.88Q13.09 16.23 12.29 16.23ZM14.39 7.42L14.39 7.42Q13.20 7.42 12.45 8.81Q11.70 10.19 11.70 12.36L11.70 12.36Q11.70 13.47 11.99 14.11Q12.28 14.74 12.78 14.74Q13.27 14.74 14.04 13.65Q14.80 12.56 15.43 10.98Q16.06 9.41 16.20 8.15L16.20 8.15Q15.25 7.42 14.39 7.42ZM23.60 15.27L23.60 15.27Q24.74 15.27 25.39 14.04Q26.04 12.80 26.04 10.89L26.04 10.89Q26.04 9.62 25.74 8.78Q25.44 7.94 24.89 7.94Q24.35 7.94 23.64 9.03Q22.93 10.12 22.39 11.70Q21.84 13.27 21.77 14.55L21.77 14.55Q22.76 15.27 23.60 15.27ZM20.17 15.78Q20.47 13.93 20.87 10.24Q21.27 6.55 21.27 5.53Q21.27 4.51 21.21 4.04Q21.15 3.57 20.97 3.22L20.97 3.22Q21.32 2.91 21.87 2.91Q22.41 2.91 22.64 3.25Q22.88 3.58 22.88 4.37Q22.88 5.15 21.95 11.19L21.95 11.19Q22.58 9.14 23.52 7.80Q24.46 6.45 25.24 6.45L25.24 6.45Q26.19 6.45 26.84 7.46Q27.50 8.46 27.50 10.46L27.50 10.46Q27.50 12.63 26.60 14.35L26.60 14.35Q26.15 15.19 25.40 15.71Q24.65 16.23 23.72 16.23L23.72 16.23Q22.51 16.23 21.67 15.29L21.67 15.29Q21.59 15.75 21.42 15.95Q21.25 16.14 20.89 16.14Q20.54 16.14 20.17 15.78L20.17 15.78ZM31.46 16.23L31.46 16.23Q30.51 16.23 29.95 15.29Q29.40 14.35 29.40 12.71L29.40 12.71Q29.40 10.08 30.58 8.27Q31.77 6.45 33.50 6.45L33.50 6.45Q34.69 6.45 35.48 7.39L35.48 7.39Q35.59 6.96 35.76 6.78Q35.94 6.59 36.31 6.59Q36.68 6.59 37.00 6.96L37.00 6.96Q36.75 7.63 36.57 9.21Q36.39 10.79 36.39 12.16Q36.39 13.52 36.53 14.27Q36.68 15.02 37.03 15.61L37.03 15.61Q36.62 16.13 36.08 16.13L36.08 16.13Q34.87 16.13 34.87 13.17L34.87 13.17Q34.87 12.70 34.99 11.51L34.99 11.51Q34.26 13.54 33.26 14.88Q32.26 16.23 31.46 16.23ZM33.56 7.42L33.56 7.42Q32.37 7.42 31.62 8.81Q30.87 10.19 30.87 12.36L30.87 12.36Q30.87 13.47 31.16 14.11Q31.44 14.74 31.94 14.74Q32.44 14.74 33.20 13.65Q33.96 12.56 34.59 10.98Q35.22 9.41 35.36 8.15L35.36 8.15Q34.41 7.42 33.56 7.42ZM46.70 5.04Q46.70 5.81 46.16 9.05Q45.63 12.29 45.63 13.67Q45.63 15.05 46.16 15.62L46.16 15.62Q45.72 16.13 45.19 16.13L45.19 16.13Q44.10 16.13 44.10 14.28L44.10 14.28Q44.10 13.51 44.60 10.28Q45.09 7.06 45.09 5.78Q45.09 4.49 44.80 3.91L44.80 3.91Q45.18 3.58 45.70 3.58Q46.23 3.58 46.47 3.93Q46.70 4.27 46.70 5.04ZM53.82 6.51L53.82 6.51Q55.45 6.51 55.45 8.93L55.45 8.93Q55.45 9.63 55.29 10.95Q55.13 12.26 55.13 12.95L55.13 12.95Q55.13 14.92 55.75 15.62L55.75 15.62Q55.26 16.13 54.77 16.13L54.77 16.13Q53.61 16.13 53.61 13.41L53.61 13.41Q53.61 12.40 53.84 10.87Q54.07 9.34 54.07 8.91Q54.07 8.48 53.90 8.24Q53.73 7.99 53.31 7.99L53.31 7.99Q52.75 7.99 51.97 9.28Q51.18 10.56 50.65 12.16Q50.11 13.76 50.11 14.67Q50.11 15.58 50.34 15.93L50.34 15.93Q49.85 16.13 49.41 16.13Q48.96 16.13 48.77 15.77Q48.58 15.41 48.58 14.75Q48.58 14.08 48.85 12.05Q49.11 10.01 49.11 8.76Q49.11 7.50 48.82 6.93L48.82 6.93Q48.96 6.79 49.24 6.70Q49.52 6.61 49.74 6.61L49.74 6.61Q50.23 6.61 50.47 6.94Q50.71 7.28 50.71 8.21Q50.71 9.14 50.30 11.41L50.30 11.41Q51.80 7.83 52.85 6.93L52.85 6.93Q53.34 6.51 53.82 6.51ZM63.80 5.98L63.80 5.98Q63.80 3.79 63.49 3.22L63.49 3.22Q63.84 2.91 64.39 2.91Q64.93 2.91 65.17 3.26Q65.41 3.61 65.41 4.40Q65.41 5.19 65.02 7.85Q64.62 10.51 64.62 11.94Q64.62 13.37 64.76 14.17Q64.90 14.97 65.28 15.61L65.28 15.61Q64.89 16.13 64.33 16.13L64.33 16.13Q63.14 16.13 63.14 13.15L63.14 13.15Q63.14 12.52 63.25 11.51L63.25 11.51Q62.52 13.55 61.52 14.89Q60.51 16.23 59.67 16.23Q58.83 16.23 58.25 15.35Q57.67 14.48 57.67 12.71L57.67 12.71Q57.67 10.46 58.67 8.54L58.67 8.54Q59.15 7.62 59.96 7.04Q60.77 6.45 61.87 6.45Q62.96 6.45 63.74 7.39L63.74 7.39Q63.80 6.89 63.80 5.98ZM61.82 7.42L61.82 7.42Q60.59 7.42 59.86 8.84Q59.14 10.26 59.14 12.36L59.14 12.36Q59.14 13.41 59.40 14.08Q59.67 14.74 60.19 14.74Q60.70 14.74 61.47 13.66Q62.23 12.57 62.86 11.00Q63.49 9.42 63.63 8.15L63.63 8.15Q62.66 7.42 61.82 7.42ZM70.22 4.26L70.22 4.26Q70.22 4.61 70.07 5.11L70.07 5.11Q69.55 5.43 69.13 5.43Q68.70 5.43 68.52 5.28Q68.35 5.12 68.35 4.84Q68.35 4.56 68.45 3.98L68.45 3.98Q68.96 3.65 69.41 3.65L69.41 3.65Q70.22 3.65 70.22 4.26ZM68.89 16.13L68.89 16.13Q67.80 16.13 67.80 14.28L67.80 14.28Q67.80 13.51 68.10 11.68Q68.39 9.84 68.39 8.67Q68.39 7.49 68.10 6.93L68.10 6.93Q68.45 6.61 68.95 6.61L68.95 6.61Q69.97 6.61 69.97 7.67L69.97 7.67Q69.97 8.01 69.65 10.30Q69.33 12.59 69.33 13.82Q69.33 15.05 69.86 15.62L69.86 15.62Q69.43 16.13 68.89 16.13ZM74.09 16.23L74.09 16.23Q73.14 16.23 72.58 15.29Q72.03 14.35 72.03 12.71L72.03 12.71Q72.03 10.08 73.21 8.27Q74.40 6.45 76.13 6.45L76.13 6.45Q77.32 6.45 78.11 7.39L78.11 7.39Q78.22 6.96 78.39 6.78Q78.57 6.59 78.94 6.59Q79.31 6.59 79.63 6.96L79.63 6.96Q79.38 7.63 79.20 9.21Q79.02 10.79 79.02 12.16Q79.02 13.52 79.16 14.27Q79.31 15.02 79.66 15.61L79.66 15.61Q79.25 16.13 78.71 16.13L78.71 16.13Q77.50 16.13 77.50 13.17L77.50 13.17Q77.50 12.70 77.62 11.51L77.62 11.51Q76.89 13.54 75.89 14.88Q74.89 16.23 74.09 16.23ZM76.19 7.42L76.19 7.42Q75.00 7.42 74.25 8.81Q73.50 10.19 73.50 12.36L73.50 12.36Q73.50 13.47 73.79 14.11Q74.07 14.74 74.57 14.74Q75.07 14.74 75.83 13.65Q76.59 12.56 77.22 10.98Q77.85 9.41 77.99 8.15L77.99 8.15Q77.04 7.42 76.19 7.42ZM87.14 6.51L87.14 6.51Q88.77 6.51 88.77 8.93L88.77 8.93Q88.77 9.63 88.61 10.95Q88.45 12.26 88.45 12.95L88.45 12.95Q88.45 14.92 89.07 15.62L89.07 15.62Q88.58 16.13 88.09 16.13L88.09 16.13Q86.93 16.13 86.93 13.41L86.93 13.41Q86.93 12.40 87.16 10.87Q87.39 9.34 87.39 8.91Q87.39 8.48 87.22 8.24Q87.05 7.99 86.63 7.99L86.63 7.99Q86.07 7.99 85.29 9.28Q84.50 10.56 83.97 12.16Q83.43 13.76 83.43 14.67Q83.43 15.58 83.66 15.93L83.66 15.93Q83.17 16.13 82.73 16.13Q82.28 16.13 82.09 15.77Q81.90 15.41 81.90 14.75Q81.90 14.08 82.17 12.05Q82.43 10.01 82.43 8.76Q82.43 7.50 82.14 6.93L82.14 6.93Q82.28 6.79 82.56 6.70Q82.84 6.61 83.06 6.61L83.06 6.61Q83.55 6.61 83.79 6.94Q84.03 7.28 84.03 8.21Q84.03 9.14 83.62 11.41L83.62 11.41Q85.12 7.83 86.17 6.93L86.17 6.93Q86.66 6.51 87.14 6.51ZM103.63 6.34L103.63 6.34Q103.63 8.86 100.21 10.42L100.21 10.42Q100.39 10.78 100.74 11.50Q101.09 12.22 101.28 12.57Q101.46 12.92 101.77 13.44Q102.07 13.96 102.31 14.21L102.31 14.21Q102.96 14.90 103.61 14.99L103.61 14.99Q103.52 15.64 103.17 15.90Q102.83 16.17 102.51 16.17L102.51 16.17Q101.79 16.17 101.18 15.23L101.18 15.23Q100.81 14.71 98.98 10.89L98.98 10.89Q98.74 10.98 97.79 11.23L97.79 11.23Q97.59 12.67 97.59 13.86Q97.59 15.05 98.13 15.62L98.13 15.62Q97.69 16.13 97.16 16.13L97.16 16.13Q96.07 16.13 96.07 14.28L96.07 14.28Q96.07 13.51 96.60 10.04Q97.13 6.57 97.13 5.58Q97.13 4.59 96.92 3.93L96.92 3.93Q98.81 3.58 100.04 3.58L100.04 3.58Q103.63 3.58 103.63 6.34ZM102.16 6.62L102.16 6.62Q102.16 5.49 101.49 4.96Q100.81 4.44 99.71 4.44L99.71 4.44Q99.22 4.44 98.71 4.52L98.71 4.52Q98.71 5.31 98.53 6.44L98.53 6.44Q98.32 7.83 97.93 10.26L97.93 10.26Q99.60 9.93 100.80 9.11L100.80 9.11Q101.43 8.68 101.79 8.04Q102.16 7.41 102.16 6.62ZM107.07 12.10L107.07 12.10Q106.69 12.10 106.32 12.05L106.32 12.05Q106.33 13.61 106.90 14.42Q107.46 15.23 108.49 15.23L108.49 15.23Q109.93 15.23 110.59 13.82L110.59 13.82Q110.92 14.14 110.92 14.60L110.92 14.60Q110.92 15.39 110.05 15.83Q109.17 16.27 108.22 16.27L108.22 16.27Q106.53 16.27 105.67 15.19Q104.80 14.11 104.80 12.40L104.80 12.40Q104.80 11.38 105.13 10.34Q105.45 9.30 106.01 8.42Q106.57 7.55 107.45 7.00Q108.33 6.45 109.38 6.45Q110.43 6.45 110.98 6.99Q111.54 7.52 111.54 8.36L111.54 8.36Q111.54 9.72 110.28 10.91Q109.03 12.10 107.07 12.10ZM110.07 8.82Q110.07 8.25 109.71 7.88Q109.35 7.50 108.73 7.50Q108.11 7.50 107.65 7.85Q107.20 8.20 106.93 8.79L106.93 8.79Q106.46 9.88 106.34 11.16L106.34 11.16Q106.68 11.20 106.97 11.20L106.97 11.20Q108.40 11.20 109.23 10.46Q110.07 9.73 110.07 8.82L110.07 8.82ZM115.98 7.43L115.98 7.43Q115.39 7.43 115.04 7.74Q114.69 8.04 114.69 8.55Q114.69 9.07 115.03 9.46Q115.37 9.86 116.20 10.53Q117.03 11.20 117.22 11.37L117.22 11.37Q118.34 12.29 118.34 13.52Q118.34 14.76 117.53 15.48Q116.72 16.21 115.22 16.21L115.22 16.21Q114.10 16.21 113.35 15.79Q112.60 15.36 112.60 14.55L112.60 14.55Q112.60 13.97 113.27 13.30L113.27 13.30Q113.51 14.31 114.14 14.81Q114.76 15.30 115.44 15.30Q116.12 15.30 116.56 14.97Q117.00 14.63 117.00 14.08L117.00 14.08Q117.00 13.61 116.82 13.34Q116.65 13.06 116.55 12.93Q116.45 12.80 116.17 12.55Q115.89 12.31 115.75 12.19Q115.60 12.07 115.18 11.74Q114.76 11.41 114.55 11.24L114.55 11.24Q113.39 10.33 113.39 9.06Q113.39 7.78 114.25 7.12Q115.12 6.45 116.63 6.45L116.63 6.45Q118.52 6.45 118.52 7.76L118.52 7.76Q118.52 8.37 117.88 8.88L117.88 8.88Q117.29 7.43 115.98 7.43ZM121.76 7.21L121.76 7.21L121.79 6.57Q121.79 5.26 121.49 4.68L121.49 4.68Q121.63 4.55 121.92 4.45Q122.21 4.35 122.43 4.35L122.43 4.35Q122.92 4.35 123.16 4.69Q123.40 5.03 123.40 5.82L123.40 5.82Q123.40 6.13 123.23 7.21L123.23 7.21Q124.95 7.18 125.51 6.80L125.51 6.80Q125.40 7.71 124.88 8.02Q124.36 8.33 123.03 8.36L123.03 8.36Q122.39 12.32 122.39 14.31L122.39 14.31Q122.39 14.77 122.59 14.99Q122.79 15.22 123.12 15.22Q123.45 15.22 123.83 14.93Q124.21 14.64 124.43 14.21L124.43 14.21Q124.68 14.52 124.68 14.87L124.68 14.87Q124.68 15.41 124.15 15.83Q123.61 16.24 122.75 16.24Q121.90 16.24 121.40 15.79Q120.90 15.33 120.90 14.35L120.90 14.35Q120.90 13.47 121.23 11.25Q121.55 9.03 121.63 8.37L121.63 8.37Q120.39 8.37 119.78 8.75L119.78 8.75Q119.78 8.11 119.91 7.84Q120.04 7.57 120.25 7.46L120.25 7.46Q120.76 7.21 121.76 7.21ZM127.97 16.23L127.97 16.23Q127.02 16.23 126.47 15.29Q125.92 14.35 125.92 12.71L125.92 12.71Q125.92 10.08 127.10 8.27Q128.28 6.45 130.02 6.45L130.02 6.45Q131.21 6.45 131.99 7.39L131.99 7.39Q132.10 6.96 132.28 6.78Q132.45 6.59 132.83 6.59Q133.20 6.59 133.52 6.96L133.52 6.96Q133.27 7.63 133.08 9.21Q132.90 10.79 132.90 12.16Q132.90 13.52 133.05 14.27Q133.20 15.02 133.55 15.61L133.55 15.61Q133.14 16.13 132.59 16.13L132.59 16.13Q131.39 16.13 131.39 13.17L131.39 13.17Q131.39 12.70 131.50 11.51L131.50 11.51Q130.77 13.54 129.77 14.88Q128.77 16.23 127.97 16.23ZM130.07 7.42L130.07 7.42Q128.88 7.42 128.14 8.81Q127.39 10.19 127.39 12.36L127.39 12.36Q127.39 13.47 127.67 14.11Q127.96 14.74 128.46 14.74Q128.95 14.74 129.72 13.65Q130.48 12.56 131.11 10.98Q131.74 9.41 131.88 8.15L131.88 8.15Q130.93 7.42 130.07 7.42ZM135.84 13.89L135.84 13.89Q135.84 13.12 136.10 11.48Q136.36 9.84 136.36 8.67Q136.36 7.49 136.07 6.93L136.07 6.93Q136.42 6.61 136.91 6.61L136.91 6.61Q137.94 6.61 137.94 7.67L137.94 7.67Q137.94 8.02 137.61 10.36Q137.28 12.70 137.28 13.80Q137.28 14.91 137.96 14.91L137.96 14.91Q138.52 14.91 139.31 13.59Q140.11 12.28 140.67 10.63Q141.23 8.99 141.23 8.20Q141.23 7.41 141.02 6.93L141.02 6.93Q141.39 6.61 141.88 6.61L141.88 6.61Q142.91 6.61 142.91 7.67L142.91 7.67Q142.91 8.44 142.65 10.04Q142.38 11.63 142.38 12.54L142.38 12.54Q142.38 14.53 143.04 15.61L143.04 15.61Q142.62 16.13 142.09 16.13L142.09 16.13Q140.88 16.13 140.88 13.17L140.88 13.17Q140.88 12.89 141.05 11.34L141.05 11.34Q139.86 14.15 139.06 15.19L139.06 15.19Q138.73 15.64 138.31 15.95Q137.90 16.25 137.51 16.25L137.51 16.25Q135.84 16.25 135.84 13.89ZM146.52 16.13L146.52 16.13Q145.43 16.13 145.43 14.28L145.43 14.28Q145.43 13.51 145.73 11.68Q146.02 9.84 146.02 8.67Q146.02 7.49 145.73 6.93L145.73 6.93Q146.08 6.61 146.58 6.61L146.58 6.61Q147.60 6.61 147.60 7.67L147.60 7.67Q147.60 8.05 147.43 9.23Q147.25 10.40 147.20 10.84L147.20 10.84Q147.95 8.85 148.90 7.65Q149.84 6.45 150.46 6.45L150.46 6.45Q150.81 6.45 150.98 6.79Q151.16 7.13 151.16 7.48Q151.16 7.83 151.07 8.19L151.07 8.19Q150.86 8.15 150.68 8.15L150.68 8.15Q149.79 8.15 148.88 9.20Q147.98 10.25 147.47 11.51Q146.96 12.77 146.96 13.59L146.96 13.59Q146.96 15.05 147.49 15.62L147.49 15.62Q147.06 16.13 146.52 16.13ZM153.82 16.23L153.82 16.23Q152.87 16.23 152.31 15.29Q151.76 14.35 151.76 12.71L151.76 12.71Q151.76 10.08 152.94 8.27Q154.13 6.45 155.86 6.45L155.86 6.45Q157.05 6.45 157.84 7.39L157.84 7.39Q157.95 6.96 158.12 6.78Q158.30 6.59 158.67 6.59Q159.04 6.59 159.36 6.96L159.36 6.96Q159.11 7.63 158.93 9.21Q158.75 10.79 158.75 12.16Q158.75 13.52 158.89 14.27Q159.04 15.02 159.39 15.61L159.39 15.61Q158.98 16.13 158.44 16.13L158.44 16.13Q157.23 16.13 157.23 13.17L157.23 13.17Q157.23 12.70 157.35 11.51L157.35 11.51Q156.62 13.54 155.62 14.88Q154.62 16.23 153.82 16.23ZM155.92 7.42L155.92 7.42Q154.73 7.42 153.98 8.81Q153.23 10.19 153.23 12.36L153.23 12.36Q153.23 13.47 153.52 14.11Q153.80 14.74 154.30 14.74Q154.80 14.74 155.56 13.65Q156.32 12.56 156.95 10.98Q157.58 9.41 157.72 8.15L157.72 8.15Q156.77 7.42 155.92 7.42ZM166.87 6.51L166.87 6.51Q168.50 6.51 168.50 8.93L168.50 8.93Q168.50 9.63 168.34 10.95Q168.18 12.26 168.18 12.95L168.18 12.95Q168.18 14.92 168.80 15.62L168.80 15.62Q168.31 16.13 167.82 16.13L167.82 16.13Q166.66 16.13 166.66 13.41L166.66 13.41Q166.66 12.40 166.89 10.87Q167.12 9.34 167.12 8.91Q167.12 8.48 166.95 8.24Q166.78 7.99 166.36 7.99L166.36 7.99Q165.80 7.99 165.02 9.28Q164.23 10.56 163.70 12.16Q163.16 13.76 163.16 14.67Q163.16 15.58 163.39 15.93L163.39 15.93Q162.90 16.13 162.46 16.13Q162.01 16.13 161.82 15.77Q161.63 15.41 161.63 14.75Q161.63 14.08 161.90 12.05Q162.16 10.01 162.16 8.76Q162.16 7.50 161.87 6.93L161.87 6.93Q162.01 6.79 162.29 6.70Q162.57 6.61 162.79 6.61L162.79 6.61Q163.28 6.61 163.52 6.94Q163.76 7.28 163.76 8.21Q163.76 9.14 163.35 11.41L163.35 11.41Q164.85 7.83 165.90 6.93L165.90 6.93Q166.39 6.51 166.87 6.51ZM172.28 7.21L172.28 7.21L172.31 6.57Q172.31 5.26 172.02 4.68L172.02 4.68Q172.16 4.55 172.45 4.45Q172.73 4.35 172.96 4.35L172.96 4.35Q173.45 4.35 173.68 4.69Q173.92 5.03 173.92 5.82L173.92 5.82Q173.92 6.13 173.75 7.21L173.75 7.21Q175.48 7.18 176.04 6.80L176.04 6.80Q175.92 7.71 175.41 8.02Q174.89 8.33 173.56 8.36L173.56 8.36Q172.91 12.32 172.91 14.31L172.91 14.31Q172.91 14.77 173.12 14.99Q173.32 15.22 173.65 15.22Q173.98 15.22 174.36 14.93Q174.73 14.64 174.96 14.21L174.96 14.21Q175.21 14.52 175.21 14.87L175.21 14.87Q175.21 15.41 174.67 15.83Q174.13 16.24 173.28 16.24Q172.42 16.24 171.93 15.79Q171.43 15.33 171.43 14.35L171.43 14.35Q171.43 13.47 171.75 11.25Q172.07 9.03 172.16 8.37L172.16 8.37Q170.91 8.37 170.31 8.75L170.31 8.75Q170.31 8.11 170.44 7.84Q170.56 7.57 170.77 7.46L170.77 7.46Q171.29 7.21 172.28 7.21Z"></path></g><defs data-v-fde0c5aa=""><linearGradient data-v-fde0c5aa="" gradientTransform="rotate(25)" id="99591c25-e01e-4556-aac0-d18e851f53d5" x1="0%" y1="0%" x2="100%" y2="0%"><stop data-v-fde0c5aa="" offset="0%" stop-color="#EB4C00" stop-opacity="1"></stop><stop data-v-fde0c5aa="" offset="100%" stop-color="#F2A900" stop-opacity="1"></stop></linearGradient></defs><g data-v-fde0c5aa="" id="6b41d756-e0cf-4882-89db-65f0c5b9dc5f" stroke="none" fill="url(#99591c25-e01e-4556-aac0-d18e851f53d5)" transform="matrix(0.26145867431390535,0,0,0.26145867431390535,31.626075417531638,136.83589126884095)"><path d="M49.03 7.25a3.31 3.31 0 00-1.865.578 2.797 2.797 0 00-.802.849c-.174.295-.257.58-.28.83-.022.25.022.46.103.615.081.155.194.26.336.317.284.112.614.049.941-.018.328-.067.661-.142.951-.159.2-.015.41-.027.616-.028.099 0 .188 0 .28.013.313 0 .712.07 1.1.149.193.04.38.081.568.103.188.022.373.02.54-.046a.66.66 0 00.383-.401c.078-.206.094-.487.01-.811a2.399 2.399 0 00-.588-1.026 3.105 3.105 0 00-1.315-.81 3.346 3.346 0 00-.978-.15zm-.261 4.997c-.782 0-1.54.11-2.247.308a8.05 8.05 0 00-1.93.83 7.586 7.586 0 00-1.986 1.696c-.49.6-.81 1.199-1.006 1.716-.198.517-.27.955-.261 1.268.008.312.09.493.233.55.142.056.329-.018.559-.187.23-.168.51-.427.848-.727.339-.3.745-.645 1.222-.979a8.411 8.411 0 011.64-.904 7.804 7.804 0 012.937-.588c.512 0 1.004.053 1.473.15.824.162 1.589.48 2.247.848.657.368 1.213.783 1.668 1.165.456.382.81.735 1.1.97.291.235.522.355.69.289.168-.066.258-.317.233-.737-.025-.419-.175-1.011-.522-1.678a7.044 7.044 0 00-1.678-2.079 7.993 7.993 0 00-3.039-1.612 8.33 8.33 0 00-2.181-.299zm.512 6.414c-1.241 0-2.453.173-3.58.476a13.372 13.372 0 00-3.095 1.258 12.846 12.846 0 00-3.244 2.61 11.486 11.486 0 00-1.799 2.657c-.385.803-.575 1.478-.643 1.958-.069.48-.012.764.13.82.142.057.364-.11.671-.447.308-.336.705-.84 1.231-1.426.526-.587 1.18-1.26 1.995-1.92a13.71 13.71 0 012.918-1.819c.78-.358 1.632-.662 2.545-.867.913-.204 1.88-.316 2.871-.317.954 0 1.885.103 2.76.299 1.54.338 2.929.974 4.092 1.706a15.728 15.728 0 012.834 2.312c.737.749 1.277 1.42 1.678 1.883.402.464.672.718.84.652.167-.065.219-.452.083-1.1-.135-.648-.463-1.558-1.09-2.591a12.482 12.482 0 00-2.853-3.226 13.31 13.31 0 00-4.885-2.47 13.651 13.651 0 00-3.459-.448zm.755 7.682a14.236 14.236 0 00-4.334.615c-1.978.6-3.98 1.676-5.697 3.31a15.64 15.64 0 00-3.067 4.157 17.802 17.802 0 00-1.696 5.212 22.347 22.347 0 00-.224 5.137c.12 1.74.431 3.497.895 5.22.592 2.209 1.419 4.372 2.377 6.489.447.986.911 1.95 1.39 2.89a172.632 172.632 0 001.798 3.44c-.445.463-.923.93-1.426 1.389a31.748 31.748 0 01-4.214 3.225c-1.122.722-2.11 1.278-2.796 1.725-.687.447-1.073.792-1.007 1.044.065.252.584.384 1.454.326.87-.058 2.087-.317 3.477-.876.807-.325 1.671-.746 2.536-1.286a17.893 17.893 0 003.44-2.807c.454.857.896 1.705 1.315 2.546 1.147 2.335 2.152 4.646 2.843 6.889.691 2.243 1.068 4.422 1.072 6.498.009 1.727-.214 3.35-.718 4.763a10.32 10.32 0 01-1.09 2.21 8.162 8.162 0 01-1.474 1.687 7.959 7.959 0 01-2.256 1.38c-.772.31-1.539.48-2.246.55-.803.08-1.53.032-2.163-.066a10.376 10.376 0 01-1.604-.382c-.43-.137-.757-.261-.988-.336-.23-.075-.366-.098-.4-.046-.036.051.028.173.204.354.177.182.47.424.886.681.417.257.963.533 1.65.755a8.54 8.54 0 002.47.41 8.952 8.952 0 002.723-.373 9.283 9.283 0 002.9-1.454 10.253 10.253 0 001.966-1.967 11.547 11.547 0 001.492-2.61c.689-1.673 1.06-3.564 1.118-5.529.064-2.354-.271-4.808-.941-7.28-.67-2.473-1.673-4.96-2.853-7.393a124.552 124.552 0 00-1.91-3.785c.698-1.062 1.21-2.1 1.547-3.002.348-.93.52-1.717.559-2.284.04-.567-.049-.908-.242-.979-.194-.07-.472.136-.83.541-.359.404-.8 1.004-1.343 1.725-.316.42-.673.883-1.062 1.37-.414-.793-.827-1.591-1.23-2.396a81.967 81.967 0 01-1.334-2.778c-.914-2.014-1.69-4.023-2.237-6.032-.425-1.564-.725-3.134-.858-4.67a19.163 19.163 0 01.112-4.475 16.241 16.241 0 011.324-4.466 12.831 12.831 0 012.433-3.551c1.345-1.393 2.985-2.375 4.633-2.974 1.648-.6 3.307-.814 4.81-.746 1.645.07 3.116.47 4.345.979a14.594 14.594 0 012.983 1.678c.767.555 1.32 1.055 1.706 1.389.14.12.247.204.345.28-.346.158-.67.345-.96.54a6.909 6.909 0 00-1.8 1.744 6.113 6.113 0 00-.839 1.63c-.154.473-.206.858-.205 1.12.002.261.056.397.14.42.085.022.204-.07.354-.262.151-.192.334-.479.597-.82a8.495 8.495 0 011.044-1.138c.44-.395.98-.792 1.632-1.09a5.843 5.843 0 011.323-.42c.47-.089.962-.117 1.445-.037.544.068 1.097.278 1.632.606a6.749 6.749 0 011.51 1.296c.814.936 1.409 2.21 1.94 3.645.644 1.837 1.13 3.818 1.043 5.789-.005.124-.018.25-.028.373a9.873 9.873 0 01-.699 2.955c-.377.904-.896 1.702-1.538 2.321a6.681 6.681 0 01-4.922 1.92 6.972 6.972 0 01-1.744-.27 7.156 7.156 0 01-1.818-.83 7.562 7.562 0 01-1.37-1.127 8.29 8.29 0 01-1.025-1.296c-.267-.415-.466-.8-.625-1.119-.16-.318-.28-.573-.382-.746-.103-.172-.184-.26-.261-.251-.078.013-.152.12-.196.326-.044.207-.062.508-.028.904s.124.885.308 1.436c.184.551.462 1.169.885 1.8a8.18 8.18 0 001.501 1.668c.622.527 1.366 1 2.238 1.361a8.734 8.734 0 002.312.606 8.904 8.904 0 002.6-.084 9.06 9.06 0 004.494-2.237 10.144 10.144 0 002.265-3.198c.553-1.216.89-2.56.98-3.925.01-.158.022-.317.027-.475.085-2.523-.501-4.876-1.324-6.918-.623-1.614-1.49-3.172-2.666-4.418a7.808 7.808 0 00-2.312-1.697 6.985 6.985 0 00-2.61-.69 6.424 6.424 0 00-2.61.457 3.35 3.35 0 00-.243-.485c-.265-.46-.726-1.11-1.445-1.836a12.808 12.808 0 00-3.011-2.238 13.434 13.434 0 00-6.171-1.63zM47.1 35.349c-.114 0-.229.012-.345.018a4.165 4.165 0 00-2.359 1.016 3.825 3.825 0 00-1.249 2.144 2.974 2.974 0 00-.018.997c.045.29.13.527.233.709.206.365.465.499.69.457.224-.043.402-.247.587-.504.185-.257.389-.568.643-.848.239-.265.53-.523.858-.7.226-.123.487-.221.755-.279.06-.013.118-.02.177-.028.336-.05.688-.031 1.007.037.244.046.49.135.718.242.228.107.439.23.634.346.194.115.375.224.54.298.166.073.32.11.466.074.146-.034.272-.144.355-.335.082-.191.121-.465.074-.802a2.852 2.852 0 00-.447-1.137 3.656 3.656 0 00-1.184-1.138 4.117 4.117 0 00-2.135-.568zm.662 3.635a3.018 3.018 0 00-1.212.364c-1.081.582-1.649 1.643-1.259 2.368.39.725 1.585.843 2.667.26 1.08-.581 1.64-1.642 1.249-2.367-.244-.453-.797-.67-1.445-.625z"></path></g><!----></svg>